<svg xmlns="http://www.w3.org/2000/svg" viewBox="0 0 1600 900" width="1600" height="900" fill="none"><g opacity="0.95"><rect x="-70.0" y="70.0" width="520.0" height="330.0" fill="none" stroke="#39414d" stroke-width="1.60"/><line x1="-70.0" y1="152.5" x2="450.0" y2="152.5" stroke="#39414d" stroke-width="0.96"/><line x1="-70.0" y1="235.0" x2="450.0" y2="235.0" stroke="#39414d" stroke-width="0.96"/><line x1="-70.0" y1="317.5" x2="450.0" y2="317.5" stroke="#39414d" stroke-width="0.96"/><polyline points="-38.8,274.1 -32.5,276.4 -26.3,297.6 -20.0,315.7 -13.7,322.4 -7.5,330.4 -1.2,313.6 5.1,304.3 11.3,295.7 17.6,307.4 23.9,311.9 30.2,331.6 36.4,312.4 42.7,332.1 49.0,335.2 55.2,326.9 61.5,320.1 67.8,339.3 74.0,326.0 80.3,333.0 86.6,330.7 92.8,338.6 99.1,335.3 105.4,319.2 111.6,324.8 117.9,343.2 124.2,347.2 130.4,337.9 136.7,324.3 143.0,313.6 149.3,296.5 155.5,283.6 161.8,304.6 168.1,306.8 174.3,325.4 180.6,336.3 186.9,340.0 193.1,348.5 199.4,348.5 205.7,340.5 211.9,341.3 218.2,346.7 224.5,348.5 230.7,348.5 237.0,332.3 243.3,320.3 249.6,334.1 255.8,328.4 262.1,325.9 268.4,319.8 274.6,316.1 280.9,317.5 287.2,308.1 293.4,316.0 299.7,315.8 306.0,309.8 312.2,308.2 318.5,293.7 324.8,285.0 331.0,305.8 337.3,291.7 343.6,290.4 349.8,292.8 356.1,287.8 362.4,283.5 368.7,272.6 374.9,294.6 381.2,292.7 387.5,280.7 393.7,283.8 400.0,262.6 406.3,276.7 412.5,287.1 418.8,308.2" fill="none" stroke="#e8ebf0" stroke-width="2.00" stroke-linejoin="round"/><rect x="-38.8" y="106.3" width="176.8" height="11.6" fill="#39414d"/><rect x="294.0" y="106.3" width="114.4" height="11.6" fill="#39414d"/><rect x="1090.0" y="430.0" width="560.0" height="350.0" fill="none" stroke="#39414d" stroke-width="1.60"/><line x1="1090.0" y1="517.5" x2="1650.0" y2="517.5" stroke="#39414d" stroke-width="0.96"/><line x1="1090.0" y1="605.0" x2="1650.0" y2="605.0" stroke="#39414d" stroke-width="0.96"/><line x1="1090.0" y1="692.5" x2="1650.0" y2="692.5" stroke="#39414d" stroke-width="0.96"/><line x1="1129.8" y1="623.0" x2="1129.8" y2="677.4" stroke="#e8ebf0" stroke-width="2.24"/><line x1="1142.1" y1="643.4" x2="1142.1" y2="689.8" stroke="#e8ebf0" stroke-width="2.24"/><line x1="1154.4" y1="653.2" x2="1154.4" y2="682.2" stroke="#e8ebf0" stroke-width="2.24"/><line x1="1166.7" y1="660.3" x2="1166.7" y2="714.2" stroke="#e8ebf0" stroke-width="2.24"/><line x1="1179.0" y1="666.0" x2="1179.0" y2="726.7" stroke="#e8ebf0" stroke-width="2.24"/><line x1="1191.4" y1="654.6" x2="1191.4" y2="721.7" stroke="#e8ebf0" stroke-width="2.24"/><line x1="1203.7" y1="680.8" x2="1203.7" y2="722.6" stroke="#e8ebf0" stroke-width="2.24"/><line x1="1216.0" y1="701.9" x2="1216.0" y2="729.6" stroke="#e8ebf0" stroke-width="2.24"/><line x1="1228.3" y1="703.4" x2="1228.3" y2="729.6" stroke="#e8ebf0" stroke-width="2.24"/><line x1="1240.6" y1="706.6" x2="1240.6" y2="727.4" stroke="#e8ebf0" stroke-width="2.24"/><line x1="1253.0" y1="697.0" x2="1253.0" y2="729.6" stroke="#e8ebf0" stroke-width="2.24"/><line x1="1265.3" y1="700.2" x2="1265.3" y2="729.6" stroke="#e8ebf0" stroke-width="2.24"/><line x1="1277.6" y1="694.7" x2="1277.6" y2="729.6" stroke="#e8ebf0" stroke-width="2.24"/><line x1="1289.9" y1="698.9" x2="1289.9" y2="729.6" stroke="#e8ebf0" stroke-width="2.24"/><line x1="1302.2" y1="690.2" x2="1302.2" y2="729.6" stroke="#e8ebf0" stroke-width="2.24"/><line x1="1314.6" y1="702.5" x2="1314.6" y2="728.4" stroke="#e8ebf0" stroke-width="2.24"/><line x1="1326.9" y1="699.2" x2="1326.9" y2="729.6" stroke="#e8ebf0" stroke-width="2.24"/><line x1="1339.2" y1="676.5" x2="1339.2" y2="729.6" stroke="#e8ebf0" stroke-width="2.24"/><line x1="1351.5" y1="689.4" x2="1351.5" y2="729.6" stroke="#e8ebf0" stroke-width="2.24"/><line x1="1363.8" y1="682.2" x2="1363.8" y2="719.1" stroke="#e8ebf0" stroke-width="2.24"/><line x1="1376.2" y1="670.5" x2="1376.2" y2="725.0" stroke="#e8ebf0" stroke-width="2.24"/><line x1="1388.5" y1="687.2" x2="1388.5" y2="716.4" stroke="#e8ebf0" stroke-width="2.24"/><line x1="1400.8" y1="686.0" x2="1400.8" y2="727.2" stroke="#e8ebf0" stroke-width="2.24"/><line x1="1413.1" y1="688.0" x2="1413.1" y2="729.6" stroke="#e8ebf0" stroke-width="2.24"/><line x1="1425.4" y1="691.5" x2="1425.4" y2="729.6" stroke="#e8ebf0" stroke-width="2.24"/><line x1="1437.8" y1="679.5" x2="1437.8" y2="729.6" stroke="#e8ebf0" stroke-width="2.24"/><line x1="1450.1" y1="695.5" x2="1450.1" y2="729.6" stroke="#e8ebf0" stroke-width="2.24"/><line x1="1462.4" y1="697.5" x2="1462.4" y2="729.6" stroke="#e8ebf0" stroke-width="2.24"/><line x1="1474.7" y1="705.5" x2="1474.7" y2="728.5" stroke="#e8ebf0" stroke-width="2.24"/><line x1="1487.0" y1="705.0" x2="1487.0" y2="729.0" stroke="#e8ebf0" stroke-width="2.24"/><line x1="1499.4" y1="695.4" x2="1499.4" y2="729.6" stroke="#e8ebf0" stroke-width="2.24"/><line x1="1511.7" y1="693.2" x2="1511.7" y2="729.6" stroke="#e8ebf0" stroke-width="2.24"/><line x1="1524.0" y1="693.4" x2="1524.0" y2="729.6" stroke="#e8ebf0" stroke-width="2.24"/><line x1="1536.3" y1="665.3" x2="1536.3" y2="729.6" stroke="#e8ebf0" stroke-width="2.24"/><line x1="1548.6" y1="672.9" x2="1548.6" y2="711.1" stroke="#e8ebf0" stroke-width="2.24"/><line x1="1561.0" y1="659.1" x2="1561.0" y2="718.0" stroke="#e8ebf0" stroke-width="2.24"/><line x1="1573.3" y1="668.2" x2="1573.3" y2="693.1" stroke="#e8ebf0" stroke-width="2.24"/><line x1="1585.6" y1="678.1" x2="1585.6" y2="711.2" stroke="#e8ebf0" stroke-width="2.24"/><line x1="1597.9" y1="670.5" x2="1597.9" y2="696.7" stroke="#e8ebf0" stroke-width="2.24"/><line x1="1610.2" y1="663.0" x2="1610.2" y2="682.0" stroke="#e8ebf0" stroke-width="2.24"/><rect x="1123.6" y="468.5" width="190.4" height="12.3" fill="#39414d"/><rect x="1482.0" y="468.5" width="123.2" height="12.3" fill="#39414d"/><rect x="330.0" y="620.0" width="430.0" height="300.0" fill="none" stroke="#39414d" stroke-width="1.60"/><line x1="330.0" y1="695.0" x2="760.0" y2="695.0" stroke="#39414d" stroke-width="0.96"/><line x1="330.0" y1="770.0" x2="760.0" y2="770.0" stroke="#39414d" stroke-width="0.96"/><line x1="330.0" y1="845.0" x2="760.0" y2="845.0" stroke="#39414d" stroke-width="0.96"/><polyline points="355.8,810.7 362.1,792.7 368.4,775.2 374.7,773.7 381.0,764.4 387.3,743.0 393.6,751.0 399.9,757.1 406.3,741.1 412.6,744.1 418.9,752.1 425.2,738.9 431.5,738.0 437.8,715.7 444.1,717.8 450.4,723.1 456.7,714.8 463.0,729.1 469.3,727.8 475.6,715.6 481.9,714.8 488.2,728.0 494.5,717.2 500.9,714.8 507.2,714.8 513.5,731.2 519.8,724.6 526.1,714.8 532.4,717.5 538.7,726.4 545.0,714.8 551.3,722.8 557.6,714.8 563.9,716.5 570.2,714.8 576.5,714.8 582.8,714.8 589.1,722.3 595.5,715.0 601.8,718.1 608.1,717.9 614.4,724.5 620.7,736.0 627.0,726.5 633.3,736.9 639.6,716.6 645.9,714.8 652.2,715.9 658.5,725.7 664.8,739.5 671.1,743.4 677.4,731.3 683.7,728.9 690.1,733.8 696.4,748.6 702.7,744.4 709.0,747.4 715.3,726.0 721.6,718.2 727.9,714.8 734.2,716.3" fill="none" stroke="#e8ebf0" stroke-width="2.00" stroke-linejoin="round"/><rect x="355.8" y="653.0" width="146.2" height="10.5" fill="#39414d"/><rect x="631.0" y="653.0" width="94.6" height="10.5" fill="#39414d"/><rect x="860.0" y="-60.0" width="420.0" height="270.0" fill="none" stroke="#39414d" stroke-width="1.60"/><line x1="860.0" y1="7.5" x2="1280.0" y2="7.5" stroke="#39414d" stroke-width="0.96"/><line x1="860.0" y1="75.0" x2="1280.0" y2="75.0" stroke="#39414d" stroke-width="0.96"/><line x1="860.0" y1="142.5" x2="1280.0" y2="142.5" stroke="#39414d" stroke-width="0.96"/><line x1="891.4" y1="88.4" x2="891.4" y2="126.8" stroke="#e8ebf0" stroke-width="2.24"/><line x1="903.7" y1="89.6" x2="903.7" y2="106.1" stroke="#e8ebf0" stroke-width="2.24"/><line x1="916.0" y1="70.9" x2="916.0" y2="106.1" stroke="#e8ebf0" stroke-width="2.24"/><line x1="928.3" y1="88.0" x2="928.3" y2="111.6" stroke="#e8ebf0" stroke-width="2.24"/><line x1="940.6" y1="64.5" x2="940.6" y2="108.8" stroke="#e8ebf0" stroke-width="2.24"/><line x1="953.0" y1="71.1" x2="953.0" y2="92.3" stroke="#e8ebf0" stroke-width="2.24"/><line x1="965.3" y1="65.2" x2="965.3" y2="97.0" stroke="#e8ebf0" stroke-width="2.24"/><line x1="977.6" y1="72.1" x2="977.6" y2="121.9" stroke="#e8ebf0" stroke-width="2.24"/><line x1="989.9" y1="69.2" x2="989.9" y2="113.9" stroke="#e8ebf0" stroke-width="2.24"/><line x1="1002.2" y1="74.1" x2="1002.2" y2="114.7" stroke="#e8ebf0" stroke-width="2.24"/><line x1="1014.6" y1="76.4" x2="1014.6" y2="120.0" stroke="#e8ebf0" stroke-width="2.24"/><line x1="1026.9" y1="78.6" x2="1026.9" y2="104.8" stroke="#e8ebf0" stroke-width="2.24"/><line x1="1039.2" y1="65.0" x2="1039.2" y2="101.4" stroke="#e8ebf0" stroke-width="2.24"/><line x1="1051.5" y1="72.2" x2="1051.5" y2="96.5" stroke="#e8ebf0" stroke-width="2.24"/><line x1="1063.8" y1="82.4" x2="1063.8" y2="106.4" stroke="#e8ebf0" stroke-width="2.24"/><line x1="1076.2" y1="92.0" x2="1076.2" y2="108.4" stroke="#e8ebf0" stroke-width="2.24"/><line x1="1088.5" y1="92.5" x2="1088.5" y2="132.1" stroke="#e8ebf0" stroke-width="2.24"/><line x1="1100.8" y1="98.7" x2="1100.8" y2="122.8" stroke="#e8ebf0" stroke-width="2.24"/><line x1="1113.1" y1="77.1" x2="1113.1" y2="127.7" stroke="#e8ebf0" stroke-width="2.24"/><line x1="1125.4" y1="86.5" x2="1125.4" y2="133.3" stroke="#e8ebf0" stroke-width="2.24"/><line x1="1137.8" y1="91.7" x2="1137.8" y2="106.3" stroke="#e8ebf0" stroke-width="2.24"/><line x1="1150.1" y1="69.8" x2="1150.1" y2="106.5" stroke="#e8ebf0" stroke-width="2.24"/><line x1="1162.4" y1="59.3" x2="1162.4" y2="98.8" stroke="#e8ebf0" stroke-width="2.24"/><line x1="1174.7" y1="71.1" x2="1174.7" y2="112.7" stroke="#e8ebf0" stroke-width="2.24"/><line x1="1187.0" y1="85.2" x2="1187.0" y2="100.3" stroke="#e8ebf0" stroke-width="2.24"/><line x1="1199.4" y1="64.0" x2="1199.4" y2="92.2" stroke="#e8ebf0" stroke-width="2.24"/><line x1="1211.7" y1="78.0" x2="1211.7" y2="100.8" stroke="#e8ebf0" stroke-width="2.24"/><line x1="1224.0" y1="76.8" x2="1224.0" y2="106.9" stroke="#e8ebf0" stroke-width="2.24"/><line x1="1236.3" y1="72.3" x2="1236.3" y2="97.4" stroke="#e8ebf0" stroke-width="2.24"/><line x1="1248.6" y1="60.7" x2="1248.6" y2="96.8" stroke="#e8ebf0" stroke-width="2.24"/><rect x="885.2" y="-30.3" width="142.8" height="9.5" fill="#39414d"/><rect x="1154.0" y="-30.3" width="92.4" height="9.5" fill="#39414d"/><rect x="1090" y="682.0" width="560" height="49.0" fill="#e8b44a" opacity="0.10"/><line x1="1090" y1="682.0" x2="1090" y2="731.0" stroke="#e8b44a" stroke-width="3"/><rect x="1116.0" y="701.2" width="150" height="5" fill="#e8b44a"/><rect x="1460.0" y="701.2" width="164" height="5" fill="#e8b44a"/></g></svg>